# xmcd
#
# Track frame offsets: 
#        150
#        20318
#        41020
#        58455
#        79781
#        95535
#        114373
#        131414
#        149500
#        166671
#        185008
#        204917
#
# Disc length: 3088 seconds
#
# Revision: 0
# Processed by: cddbd v1.5.2PL0 Copyright (c) Steve Scherf et al.
# Submitted via: ExactAudioCopyFreeDBPlugin 1.0
#
DISCID=a10c0e0c
DTITLE=Jill Andrews - The War Inside
DYEAR=2015
DGENRE=Alt. Rock
TTITLE0=Get Up, Get On
TTITLE1=I'm Not OK
TTITLE2=We Are Energy
TTITLE3=Free
TTITLE4=Cannibal
TTITLE5=Here Now
TTITLE6=I'm So in Love With You (Featuring Seth Avett)
TTITLE7=My Love Is For
TTITLE8=Sweet Troubled Man
TTITLE9=Stepping Out
TTITLE10=Rust or Gold
TTITLE11=Back Home
EXTD=
EXTT0=
EXTT1=
EXTT2=
EXTT3=
EXTT4=
EXTT5=
EXTT6=
EXTT7=
EXTT8=
EXTT9=
EXTT10=
EXTT11=
PLAYORDER=
